<svg version="1.1" id="Layer_1" xmlns="http://www.w3.org/2000/svg" xmlns:xlink="http://www.w3.org/1999/xlink" x="0px" y="0px"
	 width="100%" viewBox="0 0 168 141" enable-background="new 0 0 168 141" xml:space="preserve">
<path fill="#FEFEFE" opacity="1.000000" stroke="none" 
	d="
M100.000000,142.000000 
	C66.666672,142.000000 33.833340,142.000000 1.000009,142.000000 
	C1.000006,95.000008 1.000006,48.000019 1.000003,1.000021 
	C56.999985,1.000014 112.999969,1.000014 168.999969,1.000007 
	C168.999969,47.999981 168.999969,94.999962 168.999985,141.999969 
	C146.166672,142.000000 123.333336,142.000000 100.000000,142.000000 
M75.864716,70.852455 
	C75.864716,70.852455 75.776833,70.712921 75.287552,70.829239 
	C75.055428,71.059608 74.823296,71.289978 74.595001,71.607559 
	C74.595001,71.607559 74.508560,71.595367 74.083130,71.804718 
	C73.816109,72.005127 73.654869,72.269951 73.963943,72.921585 
	C73.963943,72.921585 73.581306,72.621002 73.121246,72.909393 
	C73.004646,73.246109 72.888046,73.582817 72.168442,74.448357 
	C72.237183,76.295593 72.305923,78.142822 72.544113,80.538513 
	C72.992691,81.116577 73.441277,81.694633 74.044373,82.790215 
	C74.590950,83.235504 75.137527,83.680801 75.929817,84.649780 
	C76.278091,84.783882 76.626366,84.917976 76.983711,84.993965 
	C76.983711,84.993965 76.945488,85.038834 77.271667,85.524803 
	C77.808304,85.699821 78.344933,85.874847 79.574707,86.617630 
	C79.495750,87.170013 79.620918,87.916336 79.307632,88.246094 
	C73.250374,94.621780 73.706696,97.720306 81.351974,102.631706 
	C80.545624,104.429100 79.739273,106.226494 78.875031,108.546005 
	C78.963860,108.696907 79.052696,108.847816 79.104874,109.523071 
	C79.382477,109.713974 79.660072,109.904884 79.991249,110.020386 
	C79.991249,110.020386 79.906647,110.057800 80.031197,110.593376 
	C80.348969,110.738884 80.666740,110.884399 80.967087,110.998344 
	C80.967087,110.998344 80.951660,111.031769 81.427643,111.667107 
	C81.983894,112.488785 82.540146,113.310463 83.852097,115.248428 
	C85.850090,113.580452 89.188240,111.792480 90.837090,109.005188 
	C91.690094,107.563232 89.547180,104.349014 89.365654,101.577492 
	C92.681252,99.973221 95.493881,97.779045 94.799637,93.686264 
	C94.151741,89.866783 91.376892,88.233582 87.722420,88.811913 
	C90.602699,86.690086 94.156677,85.073380 96.098335,82.319771 
	C97.609047,80.177322 97.823914,76.491570 97.330177,73.720596 
	C96.675224,70.044807 93.420540,71.706566 91.033791,71.963646 
	C90.380165,72.034058 89.712471,71.973824 88.756699,71.347130 
	C88.845451,70.903755 88.934204,70.460381 89.003494,69.998039 
	C89.003494,69.998039 89.012161,70.021156 89.687096,70.036446 
	C90.487015,69.712425 91.286926,69.388405 92.037285,68.999634 
	C92.037285,68.999634 92.042725,69.080994 92.541557,69.127663 
	C92.691322,69.053787 92.841095,68.979904 93.569679,68.950256 
	C94.051651,68.636360 94.533623,68.322464 95.643631,68.039413 
	C96.158310,67.717522 96.672997,67.395622 97.894661,67.053917 
	C101.959999,65.367386 105.201157,63.073997 104.704407,57.464741 
	C104.632927,57.111568 104.433281,56.860161 104.051682,56.211712 
	C103.750351,55.811642 103.449028,55.411572 103.209953,54.277458 
	C101.830299,52.315426 100.376236,50.813541 97.952339,53.436291 
	C99.083504,54.421589 100.028870,55.245045 100.967239,56.791100 
	C98.962982,58.818165 96.958725,60.845230 94.322090,62.878895 
	C93.788506,63.156044 93.254929,63.433197 92.894882,63.830460 
	C92.894882,63.830460 92.768990,63.661064 92.160530,63.725433 
	C91.781693,63.871346 91.402855,64.017258 90.269943,64.103813 
	C89.515434,64.067070 88.760933,64.030319 87.972061,63.287800 
	C87.781158,62.859406 87.590256,62.431015 87.678223,61.287212 
	C87.659523,60.525337 87.640823,59.763466 87.861343,58.091679 
	C87.954170,52.777023 87.937798,47.457554 88.172073,42.149139 
	C88.385170,37.320667 87.621513,32.483849 91.278511,28.065500 
	C93.520309,25.356989 92.496620,21.030617 89.126167,19.511934 
	C86.740417,18.436949 82.899582,18.580948 80.594307,19.823967 
	C77.393051,21.550097 76.574814,25.618687 79.003639,28.482883 
	C81.939751,31.945297 81.769417,35.687336 81.874023,39.604450 
	C82.002434,44.412838 82.150764,49.220699 82.156860,54.498394 
	C82.156860,54.498394 82.318413,54.959148 82.153885,55.761459 
	C82.274956,56.838192 82.396019,57.914925 82.343834,59.795525 
	C82.206245,61.147087 82.068657,62.498646 81.467598,63.989750 
	C81.467598,63.989750 81.003540,64.127312 80.229256,63.993122 
	C79.202843,63.821953 78.176430,63.650784 76.624619,63.063454 
	C73.410149,61.516884 69.275879,60.976528 69.686394,55.717865 
	C72.812309,54.537003 75.938225,53.356140 79.022675,51.971302 
	C79.022675,51.971302 79.124054,52.176403 79.124054,52.176403 
	C79.124054,52.176403 78.989685,52.069481 78.445953,51.685799 
	C78.165268,51.116611 77.968460,50.118191 77.590973,50.044434 
	C73.686035,49.281441 70.405014,50.579632 67.545700,53.478729 
	C67.545700,53.478729 67.435593,53.584137 67.018944,53.904102 
	C66.878990,54.221733 66.739044,54.539364 66.113235,55.303402 
	C63.673668,63.541775 69.653244,67.753708 77.235306,68.525833 
	C77.143227,69.007797 77.051140,69.489769 76.986450,70.005920 
	C76.986450,70.005920 76.979393,69.963951 76.429901,69.992538 
	C76.194130,70.251305 75.958359,70.510071 75.864716,70.852455 
M41.828693,49.373886 
	C43.446136,49.321163 45.167324,48.880070 46.663902,49.279831 
	C55.270840,51.578880 63.038628,47.592110 71.149239,46.231682 
	C72.187302,46.057560 73.215485,45.735794 74.202675,45.362064 
	C79.134102,43.495144 78.118660,39.476475 77.492508,35.740280 
	C77.327217,34.753975 76.548920,33.628372 75.717583,33.037003 
	C71.808952,30.256622 67.253906,28.170204 63.923546,24.841606 
	C58.831730,19.752487 56.677689,18.643576 49.959675,21.304588 
	C36.986420,26.443314 23.701462,29.542076 9.625949,28.166576 
	C8.613425,28.067631 7.554090,28.447714 6.021108,28.680204 
	C9.096750,35.161232 14.832590,33.530788 19.550404,34.759346 
	C17.091637,34.963863 14.632871,35.168385 11.592813,35.421257 
	C17.073059,42.071934 24.133064,43.783237 30.868694,46.061165 
	C34.227531,47.197090 37.651520,48.140377 41.828693,49.373886 
M91.832672,39.189823 
	C93.310463,41.331360 94.332115,44.526703 96.357407,45.403328 
	C101.128204,47.468323 106.364586,49.526199 111.436371,49.586407 
	C119.852699,49.686321 128.575439,50.588871 136.597473,46.371845 
	C139.030762,45.092716 143.130844,47.492714 144.223801,42.998119 
	C150.286255,44.711594 152.412216,37.840252 157.301849,36.953648 
	C157.523636,36.913429 157.612946,36.142605 157.900604,35.322533 
	C154.660019,35.112091 151.654587,34.916920 148.649155,34.721748 
	C161.610153,33.396667 161.610153,33.396667 163.541138,28.381855 
	C162.158722,28.308586 160.916153,28.168554 159.676376,28.189991 
	C154.594559,28.277863 149.320847,29.339661 144.474945,28.329529 
	C135.999420,26.562805 127.749939,23.649675 119.476265,20.996967 
	C113.161598,18.972357 110.744095,19.477621 106.467606,24.692055 
	C102.728378,29.251396 98.245651,32.532310 92.216507,33.289215 
	C92.102554,35.031208 91.995392,36.669418 91.832672,39.189823 
z"/>
<path fill="#06551E" opacity="1.000000" stroke="none" 
	d="
M41.437366,49.272343 
	C37.651520,48.140377 34.227531,47.197090 30.868694,46.061165 
	C24.133064,43.783237 17.073059,42.071934 11.592813,35.421257 
	C14.632871,35.168385 17.091637,34.963863 19.550404,34.759346 
	C14.832590,33.530788 9.096750,35.161232 6.021108,28.680204 
	C7.554090,28.447714 8.613425,28.067631 9.625949,28.166576 
	C23.701462,29.542076 36.986420,26.443314 49.959675,21.304588 
	C56.677689,18.643576 58.831730,19.752487 63.923546,24.841606 
	C67.253906,28.170204 71.808952,30.256622 75.717583,33.037003 
	C76.548920,33.628372 77.327217,34.753975 77.492508,35.740280 
	C78.118660,39.476475 79.134102,43.495144 74.202675,45.362064 
	C73.215485,45.735794 72.187302,46.057560 71.149239,46.231682 
	C63.038628,47.592110 55.270840,51.578880 46.663902,49.279831 
	C45.167324,48.880070 43.446136,49.321163 41.437366,49.272343 
z"/>
<path fill="#06551F" opacity="1.000000" stroke="none" 
	d="
M91.860451,38.748726 
	C91.995392,36.669418 92.102554,35.031208 92.216507,33.289215 
	C98.245651,32.532310 102.728378,29.251396 106.467606,24.692055 
	C110.744095,19.477621 113.161598,18.972357 119.476265,20.996967 
	C127.749939,23.649675 135.999420,26.562805 144.474945,28.329529 
	C149.320847,29.339661 154.594559,28.277863 159.676376,28.189991 
	C160.916153,28.168554 162.158722,28.308586 163.541138,28.381855 
	C161.610153,33.396667 161.610153,33.396667 148.649155,34.721748 
	C151.654587,34.916920 154.660019,35.112091 157.900604,35.322533 
	C157.612946,36.142605 157.523636,36.913429 157.301849,36.953648 
	C152.412216,37.840252 150.286255,44.711594 144.223801,42.998119 
	C143.130844,47.492714 139.030762,45.092716 136.597473,46.371845 
	C128.575439,50.588871 119.852699,49.686321 111.436371,49.586407 
	C106.364586,49.526199 101.128204,47.468323 96.357407,45.403328 
	C94.332115,44.526703 93.310463,41.331360 91.860451,38.748726 
z"/>
<path fill="#085621" opacity="1.000000" stroke="none" 
	d="
M82.517090,58.991657 
	C82.396019,57.914925 82.274956,56.838192 82.357758,55.265488 
	C82.713554,54.452656 82.623169,54.205746 82.290482,54.028786 
	C82.150764,49.220699 82.002434,44.412838 81.874023,39.604450 
	C81.769417,35.687336 81.939751,31.945297 79.003639,28.482883 
	C76.574814,25.618687 77.393051,21.550097 80.594307,19.823967 
	C82.899582,18.580948 86.740417,18.436949 89.126167,19.511934 
	C92.496620,21.030617 93.520309,25.356989 91.278511,28.065500 
	C87.621513,32.483849 88.385170,37.320667 88.172073,42.149139 
	C87.937798,47.457554 87.954170,52.777023 87.431068,58.629539 
	C86.670563,60.115761 86.340340,61.064125 85.815247,62.238708 
	C84.585960,61.307175 83.551521,60.149414 82.517090,58.991657 
z"/>
<path fill="#0B551D" opacity="1.000000" stroke="none" 
	d="
M89.051231,71.973541 
	C89.712471,71.973824 90.380165,72.034058 91.033791,71.963646 
	C93.420540,71.706566 96.675224,70.044807 97.330177,73.720596 
	C97.823914,76.491570 97.609047,80.177322 96.098335,82.319771 
	C94.156677,85.073380 90.602699,86.690086 87.722420,88.811913 
	C91.376892,88.233582 94.151741,89.866783 94.799637,93.686264 
	C95.493881,97.779045 92.681252,99.973221 88.795044,101.791763 
	C87.816887,102.323082 87.409340,102.640129 86.634491,102.973038 
	C84.640671,102.633575 83.014160,102.278259 81.387657,101.922943 
	C73.706696,97.720306 73.250374,94.621780 79.307632,88.246094 
	C79.620918,87.916336 79.495750,87.170013 79.445267,86.301819 
	C79.315819,85.986000 79.737839,85.864845 79.801033,85.890549 
	C79.864227,85.916260 79.983887,85.981819 79.779648,86.374031 
	C80.358620,86.533211 81.141846,86.300179 81.965988,86.008392 
	C82.006905,85.949638 82.097504,85.838737 82.348663,85.783081 
	C83.423477,85.800125 84.247147,85.872818 85.329285,85.737839 
	C85.736000,84.663475 85.884232,83.796768 86.403374,82.984299 
	C88.865257,81.422981 90.956238,79.807434 93.047218,78.191879 
	C91.395699,76.450729 89.744179,74.709579 88.030159,72.737709 
	C87.967659,72.506989 87.927231,72.030624 88.208328,72.018219 
	C88.676689,71.995064 88.863960,71.984306 89.051231,71.973541 
M81.781898,91.486893 
	C77.758064,95.189926 77.875809,95.928673 83.251297,99.411354 
	C83.424980,99.147118 83.598671,98.882889 83.648132,97.934669 
	C83.534088,96.072464 83.420044,94.210251 83.938599,92.116646 
	C84.594215,91.583733 85.249832,91.050827 85.905449,90.517914 
	C85.748535,90.252510 85.591629,89.987106 85.434715,89.721710 
	C84.435295,90.217331 83.435883,90.712959 81.781898,91.486893 
M89.885750,97.346878 
	C92.664772,93.722466 89.793793,92.571861 87.295700,90.945084 
	C86.752930,93.815025 86.274399,96.345306 85.713989,99.308525 
	C86.991417,98.793839 88.156662,98.324348 89.885750,97.346878 
z"/>
<path fill="#07531C" opacity="1.000000" stroke="none" 
	d="
M81.003540,64.127312 
	C81.003540,64.127312 81.467598,63.989750 81.841003,64.245865 
	C82.743553,65.600700 83.272705,66.699417 84.276527,68.783737 
	C85.850853,66.761894 86.928635,65.377731 88.006424,63.993576 
	C88.760933,64.030319 89.515434,64.067070 90.828163,64.332123 
	C91.847252,64.260651 92.308121,63.960861 92.768990,63.661064 
	C92.768990,63.661064 92.894882,63.830460 93.136673,63.833591 
	C93.903801,63.515247 94.429131,63.193768 94.954468,62.872292 
	C96.958725,60.845230 98.962982,58.818165 100.999146,56.153011 
	C101.736595,55.347115 102.442146,55.179310 103.147697,55.011505 
	C103.449028,55.411572 103.750351,55.811642 104.085861,56.693012 
	C104.182686,57.492432 104.341995,57.750988 104.597969,57.949986 
	C105.201157,63.073997 101.959999,65.367386 97.249741,67.041519 
	C96.075073,67.355598 95.545334,67.682083 95.015587,68.008568 
	C94.533623,68.322464 94.051651,68.636360 93.173676,68.778168 
	C92.532684,68.764389 92.287704,68.922691 92.042725,69.080994 
	C92.042725,69.080994 92.037285,68.999634 91.716049,69.010223 
	C90.600594,69.354256 89.806374,69.687698 89.012161,70.021149 
	C89.012161,70.021156 89.003494,69.998039 88.631935,69.999832 
	C86.558746,70.719460 84.857117,71.437294 83.145691,72.130386 
	C83.135910,72.105652 83.169205,72.142586 82.865326,72.111450 
	C82.044189,72.343643 81.526947,72.606979 80.738907,72.962952 
	C80.029526,73.390404 79.590950,73.725227 78.813690,74.078613 
	C77.996170,74.749466 77.517342,75.401741 77.016495,76.034241 
	C76.994484,76.014465 77.052681,76.024696 76.780182,76.229149 
	C76.724953,77.602837 76.942215,78.772064 77.453430,80.059746 
	C78.847488,81.071564 79.947601,81.964935 81.047867,83.165436 
	C81.348640,83.967636 81.649269,84.462715 81.980331,85.179108 
	C82.010765,85.400429 82.097504,85.838737 82.097504,85.838737 
	C82.097504,85.838737 82.006905,85.949638 81.643234,85.979767 
	C80.847679,86.000534 80.415779,85.991180 79.983887,85.981819 
	C79.983887,85.981819 79.864227,85.916260 79.632339,85.635704 
	C78.582130,85.249710 77.763809,85.144272 76.945488,85.038834 
	C76.945488,85.038834 76.983711,84.993965 76.834534,84.783104 
	C76.351601,84.423531 76.017845,84.274811 75.684097,84.126099 
	C75.137527,83.680801 74.590950,83.235504 73.974915,82.217209 
	C73.395195,81.092812 72.884933,80.541435 72.374664,79.990059 
	C72.305923,78.142822 72.237183,76.295593 72.731857,74.063667 
	C73.390617,73.326317 73.485962,72.973663 73.581306,72.621002 
	C73.581306,72.621002 73.963943,72.921585 74.067429,72.752441 
	C74.283463,72.253983 74.396011,71.924675 74.508560,71.595367 
	C74.508560,71.595367 74.595001,71.607559 74.877014,71.597839 
	C75.364967,71.296379 75.570900,71.004654 75.776833,70.712921 
	C75.776833,70.712921 75.864716,70.852455 76.060120,70.784042 
	C76.496819,70.465065 76.738106,70.214508 76.979393,69.963951 
	C76.979393,69.963951 76.986450,70.005920 77.343323,69.995544 
	C79.019203,69.565361 80.338211,69.145569 81.620438,68.737480 
	C81.378334,66.928185 81.190933,65.527748 81.003540,64.127312 
z"/>
<path fill="#07531C" opacity="1.000000" stroke="none" 
	d="
M69.060600,56.149010 
	C69.275879,60.976528 73.410149,61.516884 76.927200,63.556622 
	C77.168983,65.300705 77.108192,66.551620 77.047409,67.802536 
	C69.653244,67.753708 63.673668,63.541775 66.642334,54.987099 
	C67.259483,54.308575 67.347534,53.946354 67.435593,53.584137 
	C67.435593,53.584137 67.545700,53.478729 67.883125,53.712135 
	C68.500565,54.680031 68.780579,55.414520 69.060600,56.149010 
z"/>
<path fill="#175820" opacity="1.000000" stroke="none" 
	d="
M87.001801,102.957184 
	C87.409340,102.640129 87.816887,102.323082 88.491119,101.970764 
	C89.547180,104.349014 91.690094,107.563232 90.837090,109.005188 
	C89.188240,111.792480 85.850090,113.580452 83.852097,115.248428 
	C82.540146,113.310463 81.983894,112.488785 81.544861,111.289581 
	C84.697388,110.692711 86.925102,109.769531 86.248848,105.974442 
	C86.731979,104.954872 86.885048,103.988686 87.027618,103.007156 
	C87.017136,102.991814 87.001801,102.957184 87.001801,102.957184 
z"/>
<path fill="#125822" opacity="1.000000" stroke="none" 
	d="
M69.373497,55.933437 
	C68.780579,55.414520 68.500565,54.680031 67.939194,53.660515 
	C70.405014,50.579632 73.686035,49.281441 77.590973,50.044434 
	C77.968460,50.118191 78.165268,51.116611 78.736893,51.903770 
	C79.027832,52.121738 79.064140,52.175278 79.064140,52.175278 
	C75.938225,53.356140 72.812309,54.537003 69.373497,55.933437 
z"/>
<path fill="#0C561F" opacity="1.000000" stroke="none" 
	d="
M87.989243,63.640686 
	C86.928635,65.377731 85.850853,66.761894 84.276527,68.783737 
	C83.272705,66.699417 82.743553,65.600700 82.072731,64.176094 
	C82.068657,62.498646 82.206245,61.147087 82.430466,59.393593 
	C83.551521,60.149414 84.585960,61.307175 86.046661,62.234215 
	C86.472931,62.003494 86.936127,61.993145 86.936127,61.993145 
	C86.936127,61.993145 87.399345,62.002625 87.399345,62.002625 
	C87.590256,62.431015 87.781158,62.859406 87.989243,63.640686 
z"/>
<path fill="#0F5115" opacity="1.000000" stroke="none" 
	d="
M81.369812,102.277328 
	C83.014160,102.278259 84.640671,102.633575 86.634491,102.973038 
	C87.001801,102.957184 87.017136,102.991814 86.979774,103.312134 
	C86.309364,104.399284 85.676323,105.166107 84.743256,106.073380 
	C82.606461,106.817177 80.769691,107.420525 78.932922,108.023880 
	C79.739273,106.226494 80.545624,104.429100 81.369812,102.277328 
z"/>
<path fill="#004302" opacity="1.000000" stroke="none" 
	d="
M78.903976,108.284943 
	C80.769691,107.420525 82.606461,106.817177 84.961777,106.097610 
	C85.480331,105.981384 85.918785,106.027824 85.918785,106.027824 
	C86.925102,109.769531 84.697388,110.692711 81.306870,110.971909 
	C80.951660,111.031769 80.967087,110.998344 80.865387,110.783997 
	C80.478012,110.399033 80.192329,110.228416 79.906647,110.057800 
	C79.906647,110.057800 79.991249,110.020386 79.915939,109.823898 
	C79.686050,109.330620 79.453011,109.121056 79.141533,108.998718 
	C79.052696,108.847816 78.963860,108.696907 78.903976,108.284943 
z"/>
<path fill="#0C561F" opacity="1.000000" stroke="none" 
	d="
M77.141357,68.164185 
	C77.108192,66.551620 77.168983,65.300705 77.189896,63.764702 
	C78.176430,63.650784 79.202843,63.821953 80.616394,64.060219 
	C81.190933,65.527748 81.378334,66.928185 81.620438,68.737480 
	C80.338211,69.145569 79.019203,69.565361 77.329620,69.978447 
	C77.051140,69.489769 77.143227,69.007797 77.141357,68.164185 
z"/>
<path fill="#0C561F" opacity="1.000000" stroke="none" 
	d="
M103.178825,54.644482 
	C102.442146,55.179310 101.736595,55.347115 101.002640,55.791714 
	C100.028870,55.245045 99.083504,54.421589 97.952339,53.436291 
	C100.376236,50.813541 101.830299,52.315426 103.178825,54.644482 
z"/>
<path fill="#0C561F" opacity="1.000000" stroke="none" 
	d="
M83.155479,72.155136 
	C84.857117,71.437294 86.558746,70.719460 88.641663,70.009308 
	C88.934204,70.460381 88.845451,70.903755 88.903961,71.660339 
	C88.863960,71.984306 88.676689,71.995064 87.805405,72.021133 
	C85.799423,72.076004 84.477455,72.115570 83.155479,72.155136 
z"/>
<path fill="#07531C" opacity="1.000000" stroke="none" 
	d="
M87.538788,61.644920 
	C87.399345,62.002625 86.936127,61.993145 86.936127,61.993145 
	C86.936127,61.993145 86.472931,62.003494 86.241516,62.007988 
	C86.340340,61.064125 86.670563,60.115761 87.311462,59.084496 
	C87.640823,59.763466 87.659523,60.525337 87.538788,61.644920 
z"/>
<path fill="#0C561F" opacity="1.000000" stroke="none" 
	d="
M95.329605,68.023987 
	C95.545334,67.682083 96.075073,67.355598 96.896248,67.051422 
	C96.672997,67.395622 96.158310,67.717522 95.329605,68.023987 
z"/>
<path fill="#0C561F" opacity="1.000000" stroke="none" 
	d="
M77.108582,85.281815 
	C77.763809,85.144272 78.582130,85.249710 79.569145,85.610001 
	C79.737839,85.864845 79.315819,85.986000 79.098694,86.017937 
	C78.344933,85.874847 77.808304,85.699821 77.108582,85.281815 
z"/>
<path fill="#0C561F" opacity="1.000000" stroke="none" 
	d="
M89.349625,70.028793 
	C89.806374,69.687698 90.600594,69.354256 91.740829,69.042595 
	C91.286926,69.388405 90.487015,69.712425 89.349625,70.028793 
z"/>
<path fill="#0C561F" opacity="1.000000" stroke="none" 
	d="
M72.459389,80.264282 
	C72.884933,80.541435 73.395195,81.092812 73.897659,81.958450 
	C73.441277,81.694633 72.992691,81.116577 72.459389,80.264282 
z"/>
<path fill="#0C561F" opacity="1.000000" stroke="none" 
	d="
M94.638275,62.875591 
	C94.429131,63.193768 93.903801,63.515247 93.049904,63.773537 
	C93.254929,63.433197 93.788506,63.156044 94.638275,62.875591 
z"/>
<path fill="#0C561F" opacity="1.000000" stroke="none" 
	d="
M92.464760,63.693253 
	C92.308121,63.960861 91.847252,64.260651 91.205200,64.361801 
	C91.402855,64.017258 91.781693,63.871346 92.464760,63.693253 
z"/>
<path fill="#0F5115" opacity="1.000000" stroke="none" 
	d="
M79.123199,109.260895 
	C79.453011,109.121056 79.686050,109.330620 79.889153,109.861603 
	C79.660072,109.904884 79.382477,109.713974 79.123199,109.260895 
z"/>
<path fill="#0F5115" opacity="1.000000" stroke="none" 
	d="
M79.968918,110.325592 
	C80.192329,110.228416 80.478012,110.399033 80.874100,110.799774 
	C80.666740,110.884399 80.348969,110.738884 79.968918,110.325592 
z"/>
<path fill="#0C561F" opacity="1.000000" stroke="none" 
	d="
M75.806961,84.387939 
	C76.017845,84.274811 76.351601,84.423531 76.829987,84.812157 
	C76.626366,84.917976 76.278091,84.783882 75.806961,84.387939 
z"/>
<path fill="#0C561F" opacity="1.000000" stroke="none" 
	d="
M73.351273,72.765198 
	C73.485962,72.973663 73.390617,73.326317 73.033356,73.799255 
	C72.888046,73.582817 73.004646,73.246109 73.351273,72.765198 
z"/>
<path fill="#0C561F" opacity="1.000000" stroke="none" 
	d="
M74.295845,71.700043 
	C74.396011,71.924675 74.283463,72.253983 73.885162,72.591232 
	C73.654869,72.269951 73.816109,72.005127 74.295845,71.700043 
z"/>
<path fill="#0C561F" opacity="1.000000" stroke="none" 
	d="
M75.532196,70.771080 
	C75.570900,71.004654 75.364967,71.296379 74.875099,71.554230 
	C74.823296,71.289978 75.055428,71.059608 75.532196,70.771080 
z"/>
<path fill="#0C561F" opacity="1.000000" stroke="none" 
	d="
M76.704651,69.978241 
	C76.738106,70.214508 76.496819,70.465065 75.989059,70.742226 
	C75.958359,70.510071 76.194130,70.251305 76.704651,69.978241 
z"/>
<path fill="#0C561F" opacity="1.000000" stroke="none" 
	d="
M92.292145,69.104324 
	C92.287704,68.922691 92.532684,68.764389 92.884270,68.756058 
	C92.841095,68.979904 92.691322,69.053787 92.292145,69.104324 
z"/>
<path fill="#0C561F" opacity="1.000000" stroke="none" 
	d="
M104.651184,57.707363 
	C104.341995,57.750988 104.182686,57.492432 104.112762,56.942413 
	C104.433281,56.860161 104.632927,57.111568 104.651184,57.707363 
z"/>
<path fill="#0C561F" opacity="1.000000" stroke="none" 
	d="
M82.223671,54.263588 
	C82.623169,54.205746 82.713554,54.452656 82.440025,54.864334 
	C82.318413,54.959148 82.156860,54.498394 82.223671,54.263588 
z"/>
<path fill="#125822" opacity="1.000000" stroke="none" 
	d="
M67.227264,53.744118 
	C67.347534,53.946354 67.259483,54.308575 66.885254,54.763893 
	C66.739044,54.539364 66.878990,54.221733 67.227264,53.744118 
z"/>
<path fill="#125822" opacity="1.000000" stroke="none" 
	d="
M79.008759,52.095612 
	C78.989685,52.069481 79.124054,52.176403 79.124054,52.176403 
	C79.124054,52.176403 79.022675,51.971302 79.043411,52.073288 
	C79.064140,52.175278 79.027832,52.121738 79.008759,52.095612 
z"/>
<path fill="#FAFBFA" opacity="1.000000" stroke="none" 
	d="
M83.145691,72.130394 
	C84.477455,72.115570 85.799423,72.076004 87.524315,72.033531 
	C87.927231,72.030624 87.967659,72.506989 87.732780,72.755081 
	C87.299660,73.015030 87.101418,73.026894 86.529419,73.047302 
	C83.097076,73.187523 82.359360,74.597763 82.761543,77.659378 
	C82.964066,79.201080 85.094681,82.354706 81.047722,82.858307 
	C79.947601,81.964935 78.847488,81.071564 77.394913,79.671356 
	C77.045860,78.117905 77.049271,77.071304 77.052681,76.024696 
	C77.052681,76.024696 76.994484,76.014465 77.265312,75.876617 
	C78.074890,75.179199 78.613632,74.619629 79.152382,74.060059 
	C79.590950,73.725227 80.029526,73.390404 81.045013,73.025879 
	C82.137680,72.711647 82.653442,72.427116 83.169205,72.142586 
	C83.169205,72.142586 83.135910,72.105652 83.145691,72.130394 
z"/>
<path fill="#024B0D" opacity="1.000000" stroke="none" 
	d="
M81.047867,83.165436 
	C85.094681,82.354706 82.964066,79.201080 82.761543,77.659378 
	C82.359360,74.597763 83.097076,73.187523 86.577072,73.482742 
	C86.676468,76.916466 86.354469,79.923264 86.032471,82.930069 
	C85.884232,83.796768 85.736000,84.663475 85.281708,85.408722 
	C83.967064,85.177444 82.958481,85.067612 81.949898,84.957787 
	C81.649269,84.462715 81.348640,83.967636 81.047867,83.165436 
z"/>
<path fill="#F8FAF8" opacity="1.000000" stroke="none" 
	d="
M86.403374,82.984299 
	C86.354469,79.923264 86.676468,76.916466 86.950821,73.474213 
	C87.101418,73.026894 87.299660,73.015030 87.795280,72.985802 
	C89.744179,74.709579 91.395699,76.450729 93.047218,78.191879 
	C90.956238,79.807434 88.865257,81.422981 86.403374,82.984299 
z"/>
<path fill="#F1F4F2" opacity="1.000000" stroke="none" 
	d="
M82.988617,99.057999 
	C77.875809,95.928673 77.758064,95.189926 82.319107,91.638290 
	C83.006210,91.975815 83.156105,92.161926 83.306007,92.348045 
	C83.420044,94.210251 83.534088,96.072464 83.486053,98.336082 
	C83.323967,98.737495 82.988617,99.057999 82.988617,99.057999 
z"/>
<path fill="#F2F5F2" opacity="1.000000" stroke="none" 
	d="
M89.603828,97.600868 
	C88.156662,98.324348 86.991417,98.793839 85.713989,99.308525 
	C86.274399,96.345306 86.752930,93.815025 87.295700,90.945084 
	C89.793793,92.571861 92.664772,93.722466 89.603828,97.600868 
z"/>
<path fill="#0C561F" opacity="1.000000" stroke="none" 
	d="
M81.980331,85.179108 
	C82.958481,85.067612 83.967064,85.177444 85.023224,85.616394 
	C84.247147,85.872818 83.423477,85.800125 82.348663,85.783081 
	C82.097504,85.838737 82.010765,85.400429 81.980331,85.179108 
z"/>
<path fill="#F1F4F2" opacity="1.000000" stroke="none" 
	d="
M82.646393,91.499146 
	C83.435883,90.712959 84.435295,90.217331 85.434715,89.721710 
	C85.591629,89.987106 85.748535,90.252510 85.905449,90.517914 
	C85.249832,91.050827 84.594215,91.583733 83.622299,92.232346 
	C83.156105,92.161926 83.006210,91.975815 82.646393,91.499146 
z"/>
<path fill="#FEFEFE" opacity="1.000000" stroke="none" 
	d="
M79.779648,86.374031 
	C80.415779,85.991180 80.847679,86.000534 81.602318,86.038513 
	C81.141846,86.300179 80.358620,86.533211 79.779648,86.374031 
z"/>
<path fill="#3A6F44" opacity="1.000000" stroke="none" 
	d="
M83.119957,99.234680 
	C82.988617,99.057999 83.323967,98.737495 83.548164,98.678070 
	C83.598671,98.882889 83.424980,99.147118 83.119957,99.234680 
z"/>
<path fill="#0C561F" opacity="1.000000" stroke="none" 
	d="
M76.780182,76.229149 
	C77.049271,77.071304 77.045860,78.117905 77.100967,79.552902 
	C76.942215,78.772064 76.724953,77.602837 76.780182,76.229149 
z"/>
<path fill="#0C561F" opacity="1.000000" stroke="none" 
	d="
M78.813690,74.078621 
	C78.613632,74.619629 78.074890,75.179199 77.287323,75.896393 
	C77.517342,75.401741 77.996170,74.749466 78.813690,74.078621 
z"/>
<path fill="#0C561F" opacity="1.000000" stroke="none" 
	d="
M82.865326,72.111450 
	C82.653442,72.427116 82.137680,72.711647 81.315811,72.933243 
	C81.526947,72.606979 82.044189,72.343643 82.865326,72.111450 
z"/>
<path fill="#0B551D" opacity="1.000000" stroke="none" 
	d="
M86.248848,105.974442 
	C85.918785,106.027824 85.480331,105.981384 85.261810,105.957161 
	C85.676323,105.166107 86.309364,104.399284 86.990265,103.327477 
	C86.885048,103.988686 86.731979,104.954872 86.248848,105.974442 
z"/>
</svg>